<svg height="35" viewBox="0 0 36 23" width="35" xmlns="http://www.w3.org/2000/svg" xmlns:xlink="http://www.w3.org/1999/xlink">
    <defs>
        <linearGradient id="a" x1="0%" x2="76.616022%" y1="88.472661%" y2="51.274372%">
            <stop offset="0" stop-color="#fff" stop-opacity=".15"/>
            <stop offset="1" stop-color="#fff" stop-opacity=".915947"/>
        </linearGradient>
        <linearGradient id="b" x1="30.309686%" x2="97.085762%" y1="53.228494%" y2="87.235853%">
            <stop offset="0" stop-color="#fff"/>
            <stop offset="1" stop-color="#fff" stop-opacity=".848804"/>
        </linearGradient>
        <path id="c" d="m28.523 27.7072601 2.2602949 3.8936744c.4410472.7598867.1874731 1.7363007-.5663734 2.1808816-.2422693.1428784-.5178991.2181839-.7985865.2181839h-1.8249278c-.27674 0-.5487072-.0704343-.7891139-.2043655-.7643454-.4258189-1.0306716-1.376425-.594856-2.123238z"/>
        <filter id="d" height="1291.8%" width="1600%" x="-750%" y="-595.9%">
            <feOffset dx="0" dy="0" in="SourceAlpha" result="shadowOffsetOuter1"/>
            <feGaussianBlur in="shadowOffsetOuter1" result="shadowBlurOuter1" stdDeviation="12.5"/>
            <feColorMatrix in="shadowBlurOuter1" type="matrix" values="0 0 0 0 0.302083333   0 0 0 0 0.302083333   0 0 0 0 0.302083333  0 0 0 0.77881567 0"/>
        </filter>
    </defs>
    <g fill="none" fill-rule="evenodd" transform="translate(-6 -12)">
        <path d="m41.7850852 31.6626231c.1407754.2372231.2149148.5065718.2149148.7807867 0 .859681-.71327 1.5565902-1.5931332 1.5565902h-12.8134596c-.27674 0-.5487072-.0704343-.7891139-.2043655-.7643454-.4258189-1.0306716-1.376425-.594856-2.123238l6.3530401-10.8865624c.1394669-.2389903.3412688-.4375966.5848532-.5755917.761169-.4312166 1.7359952-.1778911 2.1773351.5658183z" fill="url(#a)"/>
        <path d="m6.21644957 31.6009345 10.91846283-18.8115817c.4410471-.7598866 1.4096998-1.0154924 2.1635463-.5709114.2342659.1381583.4293133.3347685.5663734.5709114l10.9184628 18.8115817c.4410472.7598867.1874731 1.7363007-.5663734 2.1808816-.2422693.1428784-.5178991.2181839-.7985865.2181839h-21.83692555c-.87338832 0-1.58140945-.7136941-1.58140945-1.5940804 0-.2829363.07470694-.5607746.21644957-.8049851z" fill="url(#b)" opacity=".9"/>
        <g fill="#000" opacity=".02">
            <use filter="url(#d)" xlink:href="#c"/>
            <use fill-rule="evenodd" xlink:href="#c"/>
        </g>
    </g>
</svg>
